<?xml version="1.0" encoding="UTF-8"?>
<svg width="68px" height="68px" viewBox="0 0 68 68" version="1.1" xmlns="http://www.w3.org/2000/svg" xmlns:xlink="http://www.w3.org/1999/xlink">
    <!-- Generator: Sketch 54.1 (76490) - https://sketchapp.com -->
    <title>Group</title>
    <desc>Created with Sketch.</desc>
    <defs>
        <circle id="path-1" cx="34" cy="34" r="34"></circle>
        <path d="M29.6043828,31.7845981 C29.259315,30.6426596 28.5117845,29.7129658 27.5414363,29.1977762 L22.0800867,26.2903968 C20.6411821,25.5240359 19.6859489,24.0540226 19.5173222,22.3918752 L19.4394152,21.6054711 C19.319192,20.4064621 19.6304949,19.2105263 20.2870969,18.197791 C20.6184365,17.6858627 20.8275455,17.1015367 20.8950337,16.47455 L20.9976303,15.5199607 L21.5477123,10.3871904 L21.8404589,7.65521797 C22.0863993,5.36832275 20.4608651,3.416 18.4443854,3.416 L16.5550956,3.416 C14.5400094,3.416 12.9141411,5.36872401 13.1591049,7.65599037 L13.4517655,10.3871607 L14.0017851,15.51935 L14.1044126,16.4742277 C14.1719354,17.1015367 14.3810444,17.6858627 14.7115294,18.1964717 C15.3689861,19.2105263 15.6802889,20.4064621 15.5603045,21.6030752 L15.4819902,22.3935692 C15.3162929,24.051913 14.3593436,25.5234795 12.9190575,26.2905762 L7.45685751,29.1984076 C6.48838252,29.7131455 5.74042198,30.643374 5.39673191,31.7842621 L5.03442409,32.984 L29.9656886,32.984 L29.6043828,31.7845981 Z M32.1382889,33.2432 C32.4003072,34.1104 31.7950602,35 30.94465,35 L4.05483094,35 C3.20442068,35 2.60070602,34.1104 2.86119204,33.2432 L3.47869715,31.1984 C3.97515286,29.5504 5.0722587,28.1856 6.52025454,27.416 L11.9812674,24.5088 C12.8194195,24.0624 13.387892,23.1888 13.4874896,22.192 L13.5656354,21.4032 C13.6407166,20.6544 13.4338601,19.9168 13.0324051,19.2976 C12.5436108,18.5424 12.2157048,17.6592 12.1115104,16.6912 L12.0088483,15.736 L11.4587631,10.6032 L11.1660994,7.872 C10.7968222,4.424 13.314343,1.4 16.5550956,1.4 L18.4443854,1.4 C21.6866702,1.4 24.204191,4.424 23.8333815,7.872 L23.5407178,10.6032 L22.9906326,15.736 L22.8879705,16.6912 C22.7837761,17.6592 22.4558701,18.5424 21.9670758,19.2976 C21.5656208,19.9168 21.3587643,20.6544 21.4338456,21.4032 L21.5119914,22.192 C21.6131212,23.1888 22.1800614,24.0624 23.0182135,24.5088 L28.4792264,27.416 C29.9287545,28.1856 31.0243281,29.5504 31.5223161,31.1984 L32.1382889,33.2432 Z" id="path-3"></path>
    </defs>
    <g id="📱-Individual-Screens" stroke="none" stroke-width="1" fill="none" fill-rule="evenodd">
        <g id="Walkthrough-17" transform="translate(-30.000000, -201.000000)">
            <g id="Row" transform="translate(30.000000, 201.000000)">
                <g id="Group">
                    <g id="Icon/Circle-Fill">
                        <mask id="mask-2" fill="white">
                            <use xlink:href="#path-1"></use>
                        </mask>
                        <use id="Icon-Shape" fill="#D8D8D8" fill-rule="evenodd" xlink:href="#path-1"></use>
                        <g id="UI/Master-Color" mask="url(#mask-2)" fill-rule="evenodd">
                            <rect id="Color" fill="#375DD5" x="0" y="0" width="68" height="68"></rect>
                            <rect id="Color" fill="#687089" x="0" y="0" width="68" height="68"></rect>
                        </g>
                    </g>
                    <g id="Icon/Avatar-No-Gender-Body" transform="translate(16.000000, 16.000000)">
                        <mask id="mask-4" fill="white">
                            <use xlink:href="#path-3"></use>
                        </mask>
                        <use id="Icon-Shape" fill="#455065" fill-rule="nonzero" xlink:href="#path-3"></use>
                        <g id="UI/Colors/White" mask="url(#mask-4)" fill="#FFFFFF" fill-rule="evenodd">
                            <g transform="translate(0.000000, -1.400000)" id="Color">
                                <rect x="0" y="0" width="35" height="36"></rect>
                            </g>
                        </g>
                    </g>
                </g>
            </g>
        </g>
    </g>
</svg>