<svg width="68" height="68" xmlns="http://www.w3.org/2000/svg" xmlns:xlink="http://www.w3.org/1999/xlink"><defs><circle id="a" cx="34" cy="34" r="34"/><path d="M24.674 3.15c5.502 0 9.976 4.339 9.976 9.707 0 5.347-3.178 10.287-8.42 14.735a45.738 45.738 0 0 1-5.666 4.08 43.18 43.18 0 0 1-1.87 1.085c-.342.187-.59.316-.728.384a1.05 1.05 0 0 1-.932 0 22.61 22.61 0 0 1-.729-.384 43.18 43.18 0 0 1-1.87-1.086 45.738 45.738 0 0 1-5.664-4.079C3.528 23.144.35 18.204.35 12.857c0-5.369 4.473-9.707 9.976-9.707 2.751 0 5.317 1.097 7.174 2.973a10.07 10.07 0 0 1 7.174-2.973zm-6.985 27.763a41.09 41.09 0 0 0 1.778-1.032 43.666 43.666 0 0 0 5.404-3.89c4.82-4.09 7.679-8.535 7.679-13.134 0-4.194-3.52-7.607-7.876-7.607-2.534 0-4.86 1.168-6.34 3.106a1.05 1.05 0 0 1-1.668 0c-1.48-1.938-3.808-3.106-6.34-3.106-4.357 0-7.876 3.413-7.876 7.607 0 4.6 2.86 9.045 7.68 13.134a43.666 43.666 0 0 0 5.403 3.89 41.09 41.09 0 0 0 1.967 1.135l.189-.103z" id="c"/></defs><g fill="none" fill-rule="evenodd"><g><mask id="b" fill="#fff"><use xlink:href="#a"/></mask><use fill="#D8D8D8" xlink:href="#a"/><g mask="url(#b)"><path fill="#375DD5" d="M0 0h68v68H0z"/><path fill="#687089" d="M0 0h68v68H0z"/></g></g><g transform="translate(16.893 17)"><mask id="d" fill="#fff"><use xlink:href="#c"/></mask><use fill="#455065" fill-rule="nonzero" xlink:href="#c"/><g mask="url(#d)" fill="#FFF"><path d="M0 0h35v35H0z"/></g></g></g></svg>